<mxfile host="app.diagrams.net" modified="2023-11-03T17:28:17.315Z" agent="Mozilla/5.0 (Windows NT 10.0; Win64; x64) AppleWebKit/537.36 (KHTML, like Gecko) Chrome/118.0.0.0 Safari/537.36 Edg/118.0.2088.61" etag="r6bOgN5T3YTLf7-CWhsw" version="22.0.8" type="device">
  <diagram name="Pagina-1" id="bMcdnEoAaBAyS1gXEzR1">
    <mxGraphModel dx="1869" dy="565" grid="1" gridSize="10" guides="1" tooltips="1" connect="1" arrows="1" fold="1" page="1" pageScale="1" pageWidth="827" pageHeight="1169" background="none" math="0" shadow="0">
      <root>
        <mxCell id="0" />
        <mxCell id="1" parent="0" />
        <mxCell id="IOB-C0If9d33cHpbswls-18" style="edgeStyle=orthogonalEdgeStyle;rounded=0;orthogonalLoop=1;jettySize=auto;html=1;exitX=1;exitY=0.5;exitDx=0;exitDy=0;endArrow=none;endFill=0;" edge="1" parent="1" source="IOB-C0If9d33cHpbswls-1">
          <mxGeometry relative="1" as="geometry">
            <mxPoint x="540" y="270" as="targetPoint" />
          </mxGeometry>
        </mxCell>
        <mxCell id="IOB-C0If9d33cHpbswls-21" style="edgeStyle=orthogonalEdgeStyle;rounded=0;orthogonalLoop=1;jettySize=auto;html=1;exitX=0.5;exitY=1;exitDx=0;exitDy=0;entryX=0.5;entryY=0;entryDx=0;entryDy=0;endArrow=none;endFill=0;" edge="1" parent="1" source="IOB-C0If9d33cHpbswls-1" target="IOB-C0If9d33cHpbswls-13">
          <mxGeometry relative="1" as="geometry" />
        </mxCell>
        <mxCell id="IOB-C0If9d33cHpbswls-22" style="edgeStyle=orthogonalEdgeStyle;rounded=0;orthogonalLoop=1;jettySize=auto;html=1;exitX=0.5;exitY=0;exitDx=0;exitDy=0;entryX=0.5;entryY=1;entryDx=0;entryDy=0;endArrow=none;endFill=0;" edge="1" parent="1" source="IOB-C0If9d33cHpbswls-1" target="IOB-C0If9d33cHpbswls-12">
          <mxGeometry relative="1" as="geometry" />
        </mxCell>
        <mxCell id="IOB-C0If9d33cHpbswls-45" style="edgeStyle=none;shape=connector;rounded=0;orthogonalLoop=1;jettySize=auto;html=1;exitX=0.25;exitY=1;exitDx=0;exitDy=0;labelBackgroundColor=default;strokeColor=default;align=center;verticalAlign=middle;fontFamily=Helvetica;fontSize=11;fontColor=default;endArrow=none;endFill=0;" edge="1" parent="1" source="IOB-C0If9d33cHpbswls-1" target="IOB-C0If9d33cHpbswls-44">
          <mxGeometry relative="1" as="geometry" />
        </mxCell>
        <mxCell id="IOB-C0If9d33cHpbswls-1" value="Company" style="rounded=0;whiteSpace=wrap;html=1;" vertex="1" parent="1">
          <mxGeometry x="302.5" y="250" width="150" height="40" as="geometry" />
        </mxCell>
        <mxCell id="IOB-C0If9d33cHpbswls-29" style="shape=connector;rounded=0;orthogonalLoop=1;jettySize=auto;html=1;exitX=1;exitY=0.75;exitDx=0;exitDy=0;entryX=0;entryY=0;entryDx=0;entryDy=0;labelBackgroundColor=default;strokeColor=default;align=center;verticalAlign=middle;fontFamily=Helvetica;fontSize=11;fontColor=default;endArrow=none;endFill=0;" edge="1" parent="1" source="IOB-C0If9d33cHpbswls-3" target="IOB-C0If9d33cHpbswls-28">
          <mxGeometry relative="1" as="geometry" />
        </mxCell>
        <mxCell id="IOB-C0If9d33cHpbswls-42" style="edgeStyle=none;shape=connector;rounded=0;orthogonalLoop=1;jettySize=auto;html=1;exitX=0;exitY=0.75;exitDx=0;exitDy=0;labelBackgroundColor=default;strokeColor=default;align=center;verticalAlign=middle;fontFamily=Helvetica;fontSize=11;fontColor=default;endArrow=none;endFill=0;" edge="1" parent="1" source="IOB-C0If9d33cHpbswls-3" target="IOB-C0If9d33cHpbswls-41">
          <mxGeometry relative="1" as="geometry" />
        </mxCell>
        <mxCell id="IOB-C0If9d33cHpbswls-3" value="Device" style="rounded=0;whiteSpace=wrap;html=1;" vertex="1" parent="1">
          <mxGeometry x="315" width="125" height="40" as="geometry" />
        </mxCell>
        <mxCell id="IOB-C0If9d33cHpbswls-25" style="shape=connector;rounded=0;orthogonalLoop=1;jettySize=auto;html=1;entryX=0.5;entryY=0;entryDx=0;entryDy=0;labelBackgroundColor=default;strokeColor=default;align=center;verticalAlign=middle;fontFamily=Helvetica;fontSize=11;fontColor=default;endArrow=none;endFill=0;" edge="1" parent="1" target="IOB-C0If9d33cHpbswls-24">
          <mxGeometry relative="1" as="geometry">
            <mxPoint x="800" y="280" as="sourcePoint" />
          </mxGeometry>
        </mxCell>
        <mxCell id="IOB-C0If9d33cHpbswls-89" value="" style="edgeStyle=none;shape=connector;rounded=0;orthogonalLoop=1;jettySize=auto;html=1;labelBackgroundColor=default;strokeColor=default;align=center;verticalAlign=middle;fontFamily=Helvetica;fontSize=11;fontColor=default;endArrow=none;endFill=0;" edge="1" parent="1" source="IOB-C0If9d33cHpbswls-4" target="IOB-C0If9d33cHpbswls-88">
          <mxGeometry relative="1" as="geometry" />
        </mxCell>
        <mxCell id="IOB-C0If9d33cHpbswls-4" value="User" style="rounded=0;whiteSpace=wrap;html=1;" vertex="1" parent="1">
          <mxGeometry x="700" y="250" width="120" height="40" as="geometry" />
        </mxCell>
        <mxCell id="IOB-C0If9d33cHpbswls-16" style="edgeStyle=orthogonalEdgeStyle;rounded=0;orthogonalLoop=1;jettySize=auto;html=1;exitX=1;exitY=0.5;exitDx=0;exitDy=0;entryX=0.5;entryY=0;entryDx=0;entryDy=0;endArrow=none;endFill=0;" edge="1" parent="1" source="IOB-C0If9d33cHpbswls-5" target="IOB-C0If9d33cHpbswls-15">
          <mxGeometry relative="1" as="geometry" />
        </mxCell>
        <mxCell id="IOB-C0If9d33cHpbswls-46" style="edgeStyle=none;shape=connector;rounded=0;orthogonalLoop=1;jettySize=auto;html=1;exitX=0.25;exitY=1;exitDx=0;exitDy=0;labelBackgroundColor=default;strokeColor=default;align=center;verticalAlign=middle;fontFamily=Helvetica;fontSize=11;fontColor=default;endArrow=none;endFill=0;" edge="1" parent="1" source="IOB-C0If9d33cHpbswls-5" target="IOB-C0If9d33cHpbswls-47">
          <mxGeometry relative="1" as="geometry">
            <mxPoint y="350" as="targetPoint" />
          </mxGeometry>
        </mxCell>
        <mxCell id="IOB-C0If9d33cHpbswls-5" value="Result" style="rounded=0;whiteSpace=wrap;html=1;" vertex="1" parent="1">
          <mxGeometry x="-50" y="250" width="140" height="40" as="geometry" />
        </mxCell>
        <mxCell id="IOB-C0If9d33cHpbswls-31" style="edgeStyle=none;shape=connector;rounded=0;orthogonalLoop=1;jettySize=auto;html=1;exitX=0.75;exitY=1;exitDx=0;exitDy=0;labelBackgroundColor=default;strokeColor=default;align=center;verticalAlign=middle;fontFamily=Helvetica;fontSize=11;fontColor=default;endArrow=none;endFill=0;" edge="1" parent="1" source="IOB-C0If9d33cHpbswls-6" target="IOB-C0If9d33cHpbswls-30">
          <mxGeometry relative="1" as="geometry" />
        </mxCell>
        <mxCell id="IOB-C0If9d33cHpbswls-43" style="edgeStyle=none;shape=connector;rounded=0;orthogonalLoop=1;jettySize=auto;html=1;exitX=0;exitY=1;exitDx=0;exitDy=0;labelBackgroundColor=default;strokeColor=default;align=center;verticalAlign=middle;fontFamily=Helvetica;fontSize=11;fontColor=default;endArrow=none;endFill=0;" edge="1" parent="1" source="IOB-C0If9d33cHpbswls-6" target="IOB-C0If9d33cHpbswls-40">
          <mxGeometry relative="1" as="geometry" />
        </mxCell>
        <mxCell id="IOB-C0If9d33cHpbswls-6" value="Measurement" style="rounded=0;whiteSpace=wrap;html=1;" vertex="1" parent="1">
          <mxGeometry x="301.5" y="470" width="151" height="40" as="geometry" />
        </mxCell>
        <mxCell id="IOB-C0If9d33cHpbswls-23" style="edgeStyle=orthogonalEdgeStyle;rounded=0;orthogonalLoop=1;jettySize=auto;html=1;exitX=0.5;exitY=0;exitDx=0;exitDy=0;entryX=0.5;entryY=1;entryDx=0;entryDy=0;endArrow=none;endFill=0;" edge="1" parent="1" source="IOB-C0If9d33cHpbswls-12" target="IOB-C0If9d33cHpbswls-3">
          <mxGeometry relative="1" as="geometry" />
        </mxCell>
        <mxCell id="IOB-C0If9d33cHpbswls-12" value="owned by&lt;br&gt;owns" style="shape=sortShape;perimeter=rhombusPerimeter;whiteSpace=wrap;html=1;" vertex="1" parent="1">
          <mxGeometry x="332.63" y="100" width="88.75" height="70" as="geometry" />
        </mxCell>
        <mxCell id="IOB-C0If9d33cHpbswls-20" style="edgeStyle=orthogonalEdgeStyle;rounded=0;orthogonalLoop=1;jettySize=auto;html=1;exitX=0.5;exitY=1;exitDx=0;exitDy=0;entryX=0.5;entryY=0;entryDx=0;entryDy=0;endArrow=none;endFill=0;" edge="1" parent="1" source="IOB-C0If9d33cHpbswls-13" target="IOB-C0If9d33cHpbswls-6">
          <mxGeometry relative="1" as="geometry" />
        </mxCell>
        <mxCell id="IOB-C0If9d33cHpbswls-13" value="measures&lt;br&gt;gets measured" style="shape=sortShape;perimeter=rhombusPerimeter;whiteSpace=wrap;html=1;" vertex="1" parent="1">
          <mxGeometry x="334.5" y="350" width="85" height="70" as="geometry" />
        </mxCell>
        <mxCell id="IOB-C0If9d33cHpbswls-19" style="edgeStyle=orthogonalEdgeStyle;rounded=0;orthogonalLoop=1;jettySize=auto;html=1;entryX=0;entryY=0.5;entryDx=0;entryDy=0;endArrow=none;endFill=0;" edge="1" parent="1" target="IOB-C0If9d33cHpbswls-4">
          <mxGeometry relative="1" as="geometry">
            <mxPoint x="630" y="270" as="sourcePoint" />
          </mxGeometry>
        </mxCell>
        <mxCell id="IOB-C0If9d33cHpbswls-14" value="supervised by&lt;br&gt;supervises" style="shape=sortShape;perimeter=rhombusPerimeter;whiteSpace=wrap;html=1;direction=south;rotation=0;labelPosition=center;verticalLabelPosition=middle;align=center;verticalAlign=middle;horizontal=0;" vertex="1" parent="1">
          <mxGeometry x="540" y="225" width="100" height="90" as="geometry" />
        </mxCell>
        <mxCell id="IOB-C0If9d33cHpbswls-17" style="rounded=0;orthogonalLoop=1;jettySize=auto;html=1;exitX=0.5;exitY=1;exitDx=0;exitDy=0;entryX=0;entryY=0.5;entryDx=0;entryDy=0;strokeColor=default;endArrow=none;endFill=0;" edge="1" parent="1" source="IOB-C0If9d33cHpbswls-15" target="IOB-C0If9d33cHpbswls-1">
          <mxGeometry relative="1" as="geometry" />
        </mxCell>
        <mxCell id="IOB-C0If9d33cHpbswls-15" value="receives&lt;br&gt;gets received" style="shape=sortShape;perimeter=rhombusPerimeter;whiteSpace=wrap;html=1;direction=south;rotation=-180;labelPosition=center;verticalLabelPosition=middle;align=center;verticalAlign=middle;horizontal=0;" vertex="1" parent="1">
          <mxGeometry x="150" y="226" width="90" height="88" as="geometry" />
        </mxCell>
        <mxCell id="IOB-C0If9d33cHpbswls-24" value="role" style="ellipse;whiteSpace=wrap;html=1;fontFamily=Helvetica;fontSize=11;fontColor=default;" vertex="1" parent="1">
          <mxGeometry x="790" y="320" width="80" height="40" as="geometry" />
        </mxCell>
        <mxCell id="IOB-C0If9d33cHpbswls-28" value="Location" style="ellipse;whiteSpace=wrap;html=1;fontFamily=Helvetica;fontSize=11;fontColor=default;" vertex="1" parent="1">
          <mxGeometry x="460" y="40" width="80" height="40" as="geometry" />
        </mxCell>
        <mxCell id="IOB-C0If9d33cHpbswls-35" style="edgeStyle=none;shape=connector;rounded=0;orthogonalLoop=1;jettySize=auto;html=1;exitX=0;exitY=1;exitDx=0;exitDy=0;entryX=0.5;entryY=0;entryDx=0;entryDy=0;labelBackgroundColor=default;strokeColor=default;align=center;verticalAlign=middle;fontFamily=Helvetica;fontSize=11;fontColor=default;endArrow=none;endFill=0;" edge="1" parent="1" source="IOB-C0If9d33cHpbswls-30" target="IOB-C0If9d33cHpbswls-32">
          <mxGeometry relative="1" as="geometry" />
        </mxCell>
        <mxCell id="IOB-C0If9d33cHpbswls-30" value="energy consumption" style="ellipse;whiteSpace=wrap;html=1;fontFamily=Helvetica;fontSize=11;fontColor=default;" vertex="1" parent="1">
          <mxGeometry x="405" y="535" width="115" height="45" as="geometry" />
        </mxCell>
        <mxCell id="IOB-C0If9d33cHpbswls-32" value="water (l)" style="ellipse;whiteSpace=wrap;html=1;fontFamily=Helvetica;fontSize=11;fontColor=default;" vertex="1" parent="1">
          <mxGeometry x="340" y="620" width="90" height="45" as="geometry" />
        </mxCell>
        <mxCell id="IOB-C0If9d33cHpbswls-33" value="gas (m3)" style="ellipse;whiteSpace=wrap;html=1;fontFamily=Helvetica;fontSize=11;fontColor=default;" vertex="1" parent="1">
          <mxGeometry x="452.5" y="630" width="77.5" height="38.75" as="geometry" />
        </mxCell>
        <mxCell id="IOB-C0If9d33cHpbswls-34" value="electricity (kwh)" style="ellipse;whiteSpace=wrap;html=1;fontFamily=Helvetica;fontSize=11;fontColor=default;" vertex="1" parent="1">
          <mxGeometry x="550" y="610" width="90" height="40" as="geometry" />
        </mxCell>
        <mxCell id="IOB-C0If9d33cHpbswls-36" style="edgeStyle=none;shape=connector;rounded=0;orthogonalLoop=1;jettySize=auto;html=1;exitX=0.5;exitY=1;exitDx=0;exitDy=0;entryX=0.321;entryY=0.103;entryDx=0;entryDy=0;entryPerimeter=0;labelBackgroundColor=default;strokeColor=default;align=center;verticalAlign=middle;fontFamily=Helvetica;fontSize=11;fontColor=default;endArrow=none;endFill=0;" edge="1" parent="1" source="IOB-C0If9d33cHpbswls-30" target="IOB-C0If9d33cHpbswls-33">
          <mxGeometry relative="1" as="geometry" />
        </mxCell>
        <mxCell id="IOB-C0If9d33cHpbswls-37" style="edgeStyle=none;shape=connector;rounded=0;orthogonalLoop=1;jettySize=auto;html=1;exitX=1;exitY=1;exitDx=0;exitDy=0;entryX=0.242;entryY=0.04;entryDx=0;entryDy=0;entryPerimeter=0;labelBackgroundColor=default;strokeColor=default;align=center;verticalAlign=middle;fontFamily=Helvetica;fontSize=11;fontColor=default;endArrow=none;endFill=0;" edge="1" parent="1" source="IOB-C0If9d33cHpbswls-30" target="IOB-C0If9d33cHpbswls-34">
          <mxGeometry relative="1" as="geometry" />
        </mxCell>
        <mxCell id="IOB-C0If9d33cHpbswls-38" value="Rating" style="ellipse;whiteSpace=wrap;html=1;fontFamily=Helvetica;fontSize=11;fontColor=default;" vertex="1" parent="1">
          <mxGeometry x="-80" y="180" width="80" height="50" as="geometry" />
        </mxCell>
        <mxCell id="IOB-C0If9d33cHpbswls-39" style="edgeStyle=none;shape=connector;rounded=0;orthogonalLoop=1;jettySize=auto;html=1;exitX=0.25;exitY=0;exitDx=0;exitDy=0;entryX=0.618;entryY=1.008;entryDx=0;entryDy=0;entryPerimeter=0;labelBackgroundColor=default;strokeColor=default;align=center;verticalAlign=middle;fontFamily=Helvetica;fontSize=11;fontColor=default;endArrow=none;endFill=0;" edge="1" parent="1" source="IOB-C0If9d33cHpbswls-5" target="IOB-C0If9d33cHpbswls-38">
          <mxGeometry relative="1" as="geometry" />
        </mxCell>
        <mxCell id="IOB-C0If9d33cHpbswls-40" value="Green Transportation vehicle" style="ellipse;whiteSpace=wrap;html=1;fontFamily=Helvetica;fontSize=11;fontColor=default;" vertex="1" parent="1">
          <mxGeometry x="195" y="520" width="95" height="50" as="geometry" />
        </mxCell>
        <mxCell id="IOB-C0If9d33cHpbswls-51" style="edgeStyle=none;shape=connector;rounded=0;orthogonalLoop=1;jettySize=auto;html=1;exitX=0;exitY=0.5;exitDx=0;exitDy=0;entryX=1;entryY=0.5;entryDx=0;entryDy=0;labelBackgroundColor=default;strokeColor=default;align=center;verticalAlign=middle;fontFamily=Helvetica;fontSize=11;fontColor=default;endArrow=none;endFill=0;" edge="1" parent="1" source="IOB-C0If9d33cHpbswls-41" target="IOB-C0If9d33cHpbswls-48">
          <mxGeometry relative="1" as="geometry" />
        </mxCell>
        <mxCell id="IOB-C0If9d33cHpbswls-41" value="device type" style="ellipse;whiteSpace=wrap;html=1;fontFamily=Helvetica;fontSize=11;fontColor=default;" vertex="1" parent="1">
          <mxGeometry x="220" y="30" width="62.5" height="40" as="geometry" />
        </mxCell>
        <mxCell id="IOB-C0If9d33cHpbswls-44" value="Description" style="ellipse;whiteSpace=wrap;html=1;fontFamily=Helvetica;fontSize=11;fontColor=default;" vertex="1" parent="1">
          <mxGeometry x="260" y="310" width="70" height="40" as="geometry" />
        </mxCell>
        <mxCell id="IOB-C0If9d33cHpbswls-47" value="comment" style="ellipse;whiteSpace=wrap;html=1;fontFamily=Helvetica;fontSize=11;fontColor=default;" vertex="1" parent="1">
          <mxGeometry x="-110" y="320" width="90" height="40" as="geometry" />
        </mxCell>
        <mxCell id="IOB-C0If9d33cHpbswls-64" style="edgeStyle=none;shape=connector;rounded=0;orthogonalLoop=1;jettySize=auto;html=1;exitX=0;exitY=0.5;exitDx=0;exitDy=0;labelBackgroundColor=default;strokeColor=default;align=center;verticalAlign=middle;fontFamily=Helvetica;fontSize=11;fontColor=default;endArrow=none;endFill=0;" edge="1" parent="1" source="IOB-C0If9d33cHpbswls-48" target="IOB-C0If9d33cHpbswls-65">
          <mxGeometry relative="1" as="geometry">
            <mxPoint x="90" y="30" as="targetPoint" />
          </mxGeometry>
        </mxCell>
        <mxCell id="IOB-C0If9d33cHpbswls-48" value="Person" style="ellipse;whiteSpace=wrap;html=1;fontFamily=Helvetica;fontSize=11;fontColor=default;" vertex="1" parent="1">
          <mxGeometry x="132.5" y="10" width="62.5" height="40" as="geometry" />
        </mxCell>
        <mxCell id="IOB-C0If9d33cHpbswls-50" value="" style="edgeStyle=none;shape=connector;rounded=0;orthogonalLoop=1;jettySize=auto;html=1;labelBackgroundColor=default;strokeColor=default;align=center;verticalAlign=middle;fontFamily=Helvetica;fontSize=11;fontColor=default;endArrow=none;endFill=0;" edge="1" parent="1" source="IOB-C0If9d33cHpbswls-49" target="IOB-C0If9d33cHpbswls-41">
          <mxGeometry relative="1" as="geometry" />
        </mxCell>
        <mxCell id="IOB-C0If9d33cHpbswls-66" style="edgeStyle=none;shape=connector;rounded=0;orthogonalLoop=1;jettySize=auto;html=1;exitX=0;exitY=0.5;exitDx=0;exitDy=0;labelBackgroundColor=default;strokeColor=default;align=center;verticalAlign=middle;fontFamily=Helvetica;fontSize=11;fontColor=default;endArrow=none;endFill=0;" edge="1" parent="1" source="IOB-C0If9d33cHpbswls-49" target="IOB-C0If9d33cHpbswls-67">
          <mxGeometry relative="1" as="geometry">
            <mxPoint x="100" y="100" as="targetPoint" />
          </mxGeometry>
        </mxCell>
        <mxCell id="IOB-C0If9d33cHpbswls-49" value="Mechanical" style="ellipse;whiteSpace=wrap;html=1;fontFamily=Helvetica;fontSize=11;fontColor=default;" vertex="1" parent="1">
          <mxGeometry x="132.5" y="80" width="62.5" height="40" as="geometry" />
        </mxCell>
        <mxCell id="IOB-C0If9d33cHpbswls-58" style="edgeStyle=none;shape=connector;rounded=0;orthogonalLoop=1;jettySize=auto;html=1;exitX=0;exitY=1;exitDx=0;exitDy=0;entryX=0.5;entryY=0;entryDx=0;entryDy=0;labelBackgroundColor=default;strokeColor=default;align=center;verticalAlign=middle;fontFamily=Helvetica;fontSize=11;fontColor=default;endArrow=none;endFill=0;" edge="1" parent="1" source="IOB-C0If9d33cHpbswls-52" target="IOB-C0If9d33cHpbswls-53">
          <mxGeometry relative="1" as="geometry" />
        </mxCell>
        <mxCell id="IOB-C0If9d33cHpbswls-59" style="edgeStyle=none;shape=connector;rounded=0;orthogonalLoop=1;jettySize=auto;html=1;exitX=1;exitY=0.5;exitDx=0;exitDy=0;entryX=0;entryY=0;entryDx=0;entryDy=0;labelBackgroundColor=default;strokeColor=default;align=center;verticalAlign=middle;fontFamily=Helvetica;fontSize=11;fontColor=default;endArrow=none;endFill=0;" edge="1" parent="1" source="IOB-C0If9d33cHpbswls-52" target="IOB-C0If9d33cHpbswls-55">
          <mxGeometry relative="1" as="geometry" />
        </mxCell>
        <mxCell id="IOB-C0If9d33cHpbswls-63" style="edgeStyle=none;shape=connector;rounded=0;orthogonalLoop=1;jettySize=auto;html=1;exitX=0;exitY=1;exitDx=0;exitDy=0;entryX=1;entryY=0;entryDx=0;entryDy=0;labelBackgroundColor=default;strokeColor=default;align=center;verticalAlign=middle;fontFamily=Helvetica;fontSize=11;fontColor=default;endArrow=none;endFill=0;" edge="1" parent="1" source="IOB-C0If9d33cHpbswls-52" target="IOB-C0If9d33cHpbswls-62">
          <mxGeometry relative="1" as="geometry" />
        </mxCell>
        <mxCell id="IOB-C0If9d33cHpbswls-52" value="Stats" style="ellipse;whiteSpace=wrap;html=1;fontFamily=Helvetica;fontSize=11;fontColor=default;" vertex="1" parent="1">
          <mxGeometry x="461.25" y="298" width="60" height="30" as="geometry" />
        </mxCell>
        <mxCell id="IOB-C0If9d33cHpbswls-53" value="#workers" style="ellipse;whiteSpace=wrap;html=1;fontFamily=Helvetica;fontSize=11;fontColor=default;" vertex="1" parent="1">
          <mxGeometry x="460" y="380" width="60" height="30" as="geometry" />
        </mxCell>
        <mxCell id="IOB-C0If9d33cHpbswls-56" style="edgeStyle=none;shape=connector;rounded=0;orthogonalLoop=1;jettySize=auto;html=1;exitX=0.5;exitY=1;exitDx=0;exitDy=0;entryX=1;entryY=1;entryDx=0;entryDy=0;labelBackgroundColor=default;strokeColor=default;align=center;verticalAlign=middle;fontFamily=Helvetica;fontSize=11;fontColor=default;endArrow=none;endFill=0;" edge="1" parent="1" source="IOB-C0If9d33cHpbswls-54" target="IOB-C0If9d33cHpbswls-52">
          <mxGeometry relative="1" as="geometry" />
        </mxCell>
        <mxCell id="IOB-C0If9d33cHpbswls-54" value="space (m2)" style="ellipse;whiteSpace=wrap;html=1;fontFamily=Helvetica;fontSize=11;fontColor=default;" vertex="1" parent="1">
          <mxGeometry x="521.25" y="380" width="60" height="30" as="geometry" />
        </mxCell>
        <mxCell id="IOB-C0If9d33cHpbswls-55" value="CO2 emission" style="ellipse;whiteSpace=wrap;html=1;fontFamily=Helvetica;fontSize=11;fontColor=default;" vertex="1" parent="1">
          <mxGeometry x="565" y="350" width="60" height="30" as="geometry" />
        </mxCell>
        <mxCell id="IOB-C0If9d33cHpbswls-57" style="edgeStyle=none;shape=connector;rounded=0;orthogonalLoop=1;jettySize=auto;html=1;exitX=0;exitY=0;exitDx=0;exitDy=0;entryX=0.809;entryY=0.98;entryDx=0;entryDy=0;entryPerimeter=0;labelBackgroundColor=default;strokeColor=default;align=center;verticalAlign=middle;fontFamily=Helvetica;fontSize=11;fontColor=default;endArrow=none;endFill=0;" edge="1" parent="1" source="IOB-C0If9d33cHpbswls-52" target="IOB-C0If9d33cHpbswls-1">
          <mxGeometry relative="1" as="geometry" />
        </mxCell>
        <mxCell id="IOB-C0If9d33cHpbswls-62" value="EPC" style="ellipse;whiteSpace=wrap;html=1;fontFamily=Helvetica;fontSize=11;fontColor=default;" vertex="1" parent="1">
          <mxGeometry x="419.5" y="355" width="60" height="30" as="geometry" />
        </mxCell>
        <mxCell id="IOB-C0If9d33cHpbswls-65" value="PersonID" style="ellipse;whiteSpace=wrap;html=1;fontFamily=Helvetica;fontSize=11;fontColor=default;fontStyle=4" vertex="1" parent="1">
          <mxGeometry x="40" y="5" width="60" height="50" as="geometry" />
        </mxCell>
        <mxCell id="IOB-C0If9d33cHpbswls-67" value="DeviceID" style="ellipse;whiteSpace=wrap;html=1;fontFamily=Helvetica;fontSize=11;fontColor=default;fontStyle=4" vertex="1" parent="1">
          <mxGeometry x="40" y="75" width="60" height="50" as="geometry" />
        </mxCell>
        <mxCell id="IOB-C0If9d33cHpbswls-69" style="edgeStyle=none;shape=connector;rounded=0;orthogonalLoop=1;jettySize=auto;html=1;exitX=0;exitY=0.5;exitDx=0;exitDy=0;labelBackgroundColor=default;strokeColor=default;align=center;verticalAlign=middle;fontFamily=Helvetica;fontSize=11;fontColor=default;endArrow=none;endFill=0;" edge="1" parent="1" source="IOB-C0If9d33cHpbswls-68" target="IOB-C0If9d33cHpbswls-6">
          <mxGeometry relative="1" as="geometry" />
        </mxCell>
        <mxCell id="IOB-C0If9d33cHpbswls-73" style="edgeStyle=none;shape=connector;rounded=0;orthogonalLoop=1;jettySize=auto;html=1;exitX=1;exitY=1;exitDx=0;exitDy=0;entryX=0;entryY=0.5;entryDx=0;entryDy=0;labelBackgroundColor=default;strokeColor=default;align=center;verticalAlign=middle;fontFamily=Helvetica;fontSize=11;fontColor=default;endArrow=none;endFill=0;" edge="1" parent="1" source="IOB-C0If9d33cHpbswls-68" target="IOB-C0If9d33cHpbswls-72">
          <mxGeometry relative="1" as="geometry" />
        </mxCell>
        <mxCell id="IOB-C0If9d33cHpbswls-74" style="edgeStyle=none;shape=connector;rounded=0;orthogonalLoop=1;jettySize=auto;html=1;exitX=1;exitY=0;exitDx=0;exitDy=0;labelBackgroundColor=default;strokeColor=default;align=center;verticalAlign=middle;fontFamily=Helvetica;fontSize=11;fontColor=default;endArrow=none;endFill=0;" edge="1" parent="1" source="IOB-C0If9d33cHpbswls-68" target="IOB-C0If9d33cHpbswls-71">
          <mxGeometry relative="1" as="geometry" />
        </mxCell>
        <mxCell id="IOB-C0If9d33cHpbswls-68" value="Waste" style="ellipse;whiteSpace=wrap;html=1;fontFamily=Helvetica;fontSize=11;fontColor=default;" vertex="1" parent="1">
          <mxGeometry x="505" y="470" width="90" height="40" as="geometry" />
        </mxCell>
        <mxCell id="IOB-C0If9d33cHpbswls-71" value="recycled (kg)" style="ellipse;whiteSpace=wrap;html=1;fontFamily=Helvetica;fontSize=11;fontColor=default;" vertex="1" parent="1">
          <mxGeometry x="620" y="440" width="80" height="50" as="geometry" />
        </mxCell>
        <mxCell id="IOB-C0If9d33cHpbswls-72" value="discard (kg)" style="ellipse;whiteSpace=wrap;html=1;fontFamily=Helvetica;fontSize=11;fontColor=default;" vertex="1" parent="1">
          <mxGeometry x="617.5" y="510" width="85" height="50" as="geometry" />
        </mxCell>
        <mxCell id="IOB-C0If9d33cHpbswls-75" value="Adress" style="ellipse;whiteSpace=wrap;html=1;fontFamily=Helvetica;fontSize=11;fontColor=default;fontStyle=4" vertex="1" parent="1">
          <mxGeometry x="640" y="180" width="100" height="48" as="geometry" />
        </mxCell>
        <mxCell id="IOB-C0If9d33cHpbswls-81" style="edgeStyle=none;shape=connector;rounded=0;orthogonalLoop=1;jettySize=auto;html=1;exitX=1;exitY=1;exitDx=0;exitDy=0;entryX=0;entryY=0;entryDx=0;entryDy=0;labelBackgroundColor=default;strokeColor=default;align=center;verticalAlign=middle;fontFamily=Helvetica;fontSize=11;fontColor=default;endArrow=none;endFill=0;" edge="1" parent="1" source="IOB-C0If9d33cHpbswls-76" target="IOB-C0If9d33cHpbswls-75">
          <mxGeometry relative="1" as="geometry" />
        </mxCell>
        <mxCell id="IOB-C0If9d33cHpbswls-76" value="Country" style="ellipse;whiteSpace=wrap;html=1;fontFamily=Helvetica;fontSize=11;fontColor=default;fontStyle=0" vertex="1" parent="1">
          <mxGeometry x="537.5" y="155" width="80" height="40" as="geometry" />
        </mxCell>
        <mxCell id="IOB-C0If9d33cHpbswls-77" value="City" style="ellipse;whiteSpace=wrap;html=1;fontFamily=Helvetica;fontSize=11;fontColor=default;fontStyle=0" vertex="1" parent="1">
          <mxGeometry x="580" y="110" width="80" height="40" as="geometry" />
        </mxCell>
        <mxCell id="IOB-C0If9d33cHpbswls-83" style="edgeStyle=none;shape=connector;rounded=0;orthogonalLoop=1;jettySize=auto;html=1;exitX=0.5;exitY=1;exitDx=0;exitDy=0;entryX=0.5;entryY=0;entryDx=0;entryDy=0;labelBackgroundColor=default;strokeColor=default;align=center;verticalAlign=middle;fontFamily=Helvetica;fontSize=11;fontColor=default;endArrow=none;endFill=0;" edge="1" parent="1" source="IOB-C0If9d33cHpbswls-78" target="IOB-C0If9d33cHpbswls-75">
          <mxGeometry relative="1" as="geometry" />
        </mxCell>
        <mxCell id="IOB-C0If9d33cHpbswls-78" value="Street" style="ellipse;whiteSpace=wrap;html=1;fontFamily=Helvetica;fontSize=11;fontColor=default;fontStyle=0" vertex="1" parent="1">
          <mxGeometry x="660" y="80" width="80" height="40" as="geometry" />
        </mxCell>
        <mxCell id="IOB-C0If9d33cHpbswls-79" style="edgeStyle=none;shape=connector;rounded=0;orthogonalLoop=1;jettySize=auto;html=1;exitX=0.5;exitY=1;exitDx=0;exitDy=0;labelBackgroundColor=default;strokeColor=default;align=center;verticalAlign=middle;fontFamily=Helvetica;fontSize=11;fontColor=default;endArrow=none;endFill=0;" edge="1" parent="1" source="IOB-C0If9d33cHpbswls-76" target="IOB-C0If9d33cHpbswls-76">
          <mxGeometry relative="1" as="geometry" />
        </mxCell>
        <mxCell id="IOB-C0If9d33cHpbswls-80" value="housenumber" style="ellipse;whiteSpace=wrap;html=1;fontFamily=Helvetica;fontSize=11;fontColor=default;fontStyle=0" vertex="1" parent="1">
          <mxGeometry x="730" y="115" width="80" height="40" as="geometry" />
        </mxCell>
        <mxCell id="IOB-C0If9d33cHpbswls-82" style="edgeStyle=none;shape=connector;rounded=0;orthogonalLoop=1;jettySize=auto;html=1;exitX=1;exitY=1;exitDx=0;exitDy=0;entryX=0.318;entryY=-0.008;entryDx=0;entryDy=0;entryPerimeter=0;labelBackgroundColor=default;strokeColor=default;align=center;verticalAlign=middle;fontFamily=Helvetica;fontSize=11;fontColor=default;endArrow=none;endFill=0;" edge="1" parent="1" source="IOB-C0If9d33cHpbswls-77" target="IOB-C0If9d33cHpbswls-75">
          <mxGeometry relative="1" as="geometry" />
        </mxCell>
        <mxCell id="IOB-C0If9d33cHpbswls-84" style="edgeStyle=none;shape=connector;rounded=0;orthogonalLoop=1;jettySize=auto;html=1;exitX=0;exitY=1;exitDx=0;exitDy=0;entryX=0.646;entryY=0.058;entryDx=0;entryDy=0;entryPerimeter=0;labelBackgroundColor=default;strokeColor=default;align=center;verticalAlign=middle;fontFamily=Helvetica;fontSize=11;fontColor=default;endArrow=none;endFill=0;" edge="1" parent="1" source="IOB-C0If9d33cHpbswls-80" target="IOB-C0If9d33cHpbswls-75">
          <mxGeometry relative="1" as="geometry" />
        </mxCell>
        <mxCell id="IOB-C0If9d33cHpbswls-85" style="edgeStyle=none;shape=connector;rounded=0;orthogonalLoop=1;jettySize=auto;html=1;exitX=0.5;exitY=1;exitDx=0;exitDy=0;entryX=0.178;entryY=-0.038;entryDx=0;entryDy=0;entryPerimeter=0;labelBackgroundColor=default;strokeColor=default;align=center;verticalAlign=middle;fontFamily=Helvetica;fontSize=11;fontColor=default;endArrow=none;endFill=0;" edge="1" parent="1" source="IOB-C0If9d33cHpbswls-75" target="IOB-C0If9d33cHpbswls-4">
          <mxGeometry relative="1" as="geometry" />
        </mxCell>
        <mxCell id="IOB-C0If9d33cHpbswls-86" value="lastname" style="ellipse;whiteSpace=wrap;html=1;fontFamily=Helvetica;fontSize=11;fontColor=default;" vertex="1" parent="1">
          <mxGeometry x="630" y="320" width="80" height="40" as="geometry" />
        </mxCell>
        <mxCell id="IOB-C0If9d33cHpbswls-87" style="edgeStyle=none;shape=connector;rounded=0;orthogonalLoop=1;jettySize=auto;html=1;exitX=1;exitY=0;exitDx=0;exitDy=0;entryX=0.155;entryY=0.98;entryDx=0;entryDy=0;entryPerimeter=0;labelBackgroundColor=default;strokeColor=default;align=center;verticalAlign=middle;fontFamily=Helvetica;fontSize=11;fontColor=default;endArrow=none;endFill=0;" edge="1" parent="1" source="IOB-C0If9d33cHpbswls-86" target="IOB-C0If9d33cHpbswls-4">
          <mxGeometry relative="1" as="geometry" />
        </mxCell>
        <mxCell id="IOB-C0If9d33cHpbswls-88" value="firstname" style="ellipse;whiteSpace=wrap;html=1;fontFamily=Helvetica;fontSize=11;fontColor=default;" vertex="1" parent="1">
          <mxGeometry x="702.5" y="350" width="80" height="40" as="geometry" />
        </mxCell>
        <mxCell id="IOB-C0If9d33cHpbswls-91" value="" style="edgeStyle=none;shape=connector;rounded=0;orthogonalLoop=1;jettySize=auto;html=1;labelBackgroundColor=default;strokeColor=default;align=center;verticalAlign=middle;fontFamily=Helvetica;fontSize=11;fontColor=default;endArrow=none;endFill=0;" edge="1" parent="1" source="IOB-C0If9d33cHpbswls-90" target="IOB-C0If9d33cHpbswls-5">
          <mxGeometry relative="1" as="geometry" />
        </mxCell>
        <mxCell id="IOB-C0If9d33cHpbswls-90" value="Target Values" style="ellipse;whiteSpace=wrap;html=1;fontFamily=Helvetica;fontSize=11;fontColor=default;" vertex="1" parent="1">
          <mxGeometry x="12.5" y="325" width="97.5" height="55" as="geometry" />
        </mxCell>
        <mxCell id="IOB-C0If9d33cHpbswls-97" style="edgeStyle=none;shape=connector;rounded=0;orthogonalLoop=1;jettySize=auto;html=1;exitX=1;exitY=0;exitDx=0;exitDy=0;entryX=0;entryY=1;entryDx=0;entryDy=0;labelBackgroundColor=default;strokeColor=default;align=center;verticalAlign=middle;fontFamily=Helvetica;fontSize=11;fontColor=default;endArrow=none;endFill=0;" edge="1" parent="1" source="IOB-C0If9d33cHpbswls-92" target="IOB-C0If9d33cHpbswls-90">
          <mxGeometry relative="1" as="geometry" />
        </mxCell>
        <mxCell id="IOB-C0If9d33cHpbswls-92" value="waste reduction (kg)" style="ellipse;whiteSpace=wrap;html=1;fontFamily=Helvetica;fontSize=11;fontColor=default;" vertex="1" parent="1">
          <mxGeometry x="-90" y="400" width="80" height="40" as="geometry" />
        </mxCell>
        <mxCell id="IOB-C0If9d33cHpbswls-98" style="edgeStyle=none;shape=connector;rounded=0;orthogonalLoop=1;jettySize=auto;html=1;exitX=0.5;exitY=0;exitDx=0;exitDy=0;labelBackgroundColor=default;strokeColor=default;align=center;verticalAlign=middle;fontFamily=Helvetica;fontSize=11;fontColor=default;endArrow=none;endFill=0;" edge="1" parent="1" source="IOB-C0If9d33cHpbswls-93" target="IOB-C0If9d33cHpbswls-90">
          <mxGeometry relative="1" as="geometry" />
        </mxCell>
        <mxCell id="IOB-C0If9d33cHpbswls-93" value="CO2 reduction (kg)" style="ellipse;whiteSpace=wrap;html=1;fontFamily=Helvetica;fontSize=11;fontColor=default;" vertex="1" parent="1">
          <mxGeometry x="-20" y="440" width="80" height="40" as="geometry" />
        </mxCell>
        <mxCell id="IOB-C0If9d33cHpbswls-94" value="water usage" style="ellipse;whiteSpace=wrap;html=1;fontFamily=Helvetica;fontSize=11;fontColor=default;" vertex="1" parent="1">
          <mxGeometry x="70" y="440" width="80" height="40" as="geometry" />
        </mxCell>
        <mxCell id="IOB-C0If9d33cHpbswls-100" style="edgeStyle=none;shape=connector;rounded=0;orthogonalLoop=1;jettySize=auto;html=1;exitX=0.5;exitY=0;exitDx=0;exitDy=0;entryX=1;entryY=1;entryDx=0;entryDy=0;labelBackgroundColor=default;strokeColor=default;align=center;verticalAlign=middle;fontFamily=Helvetica;fontSize=11;fontColor=default;endArrow=none;endFill=0;" edge="1" parent="1" source="IOB-C0If9d33cHpbswls-95" target="IOB-C0If9d33cHpbswls-90">
          <mxGeometry relative="1" as="geometry" />
        </mxCell>
        <mxCell id="IOB-C0If9d33cHpbswls-95" value="% green energy" style="ellipse;whiteSpace=wrap;html=1;fontFamily=Helvetica;fontSize=11;fontColor=default;" vertex="1" parent="1">
          <mxGeometry x="140" y="410" width="80" height="40" as="geometry" />
        </mxCell>
        <mxCell id="IOB-C0If9d33cHpbswls-101" style="edgeStyle=none;shape=connector;rounded=0;orthogonalLoop=1;jettySize=auto;html=1;exitX=0;exitY=0;exitDx=0;exitDy=0;entryX=1;entryY=0.5;entryDx=0;entryDy=0;labelBackgroundColor=default;strokeColor=default;align=center;verticalAlign=middle;fontFamily=Helvetica;fontSize=11;fontColor=default;endArrow=none;endFill=0;" edge="1" parent="1" source="IOB-C0If9d33cHpbswls-96" target="IOB-C0If9d33cHpbswls-90">
          <mxGeometry relative="1" as="geometry" />
        </mxCell>
        <mxCell id="IOB-C0If9d33cHpbswls-96" value="% green transportation" style="ellipse;whiteSpace=wrap;html=1;fontFamily=Helvetica;fontSize=11;fontColor=default;" vertex="1" parent="1">
          <mxGeometry x="180" y="365" width="80" height="40" as="geometry" />
        </mxCell>
        <mxCell id="IOB-C0If9d33cHpbswls-99" style="edgeStyle=none;shape=connector;rounded=0;orthogonalLoop=1;jettySize=auto;html=1;exitX=0.5;exitY=0;exitDx=0;exitDy=0;entryX=0.641;entryY=0.949;entryDx=0;entryDy=0;entryPerimeter=0;labelBackgroundColor=default;strokeColor=default;align=center;verticalAlign=middle;fontFamily=Helvetica;fontSize=11;fontColor=default;endArrow=none;endFill=0;" edge="1" parent="1" source="IOB-C0If9d33cHpbswls-94" target="IOB-C0If9d33cHpbswls-90">
          <mxGeometry relative="1" as="geometry" />
        </mxCell>
        <mxCell id="IOB-C0If9d33cHpbswls-104" value="CompanyID" style="ellipse;whiteSpace=wrap;html=1;fontFamily=Helvetica;fontSize=11;fontColor=default;fontStyle=4" vertex="1" parent="1">
          <mxGeometry x="290" y="200" width="80" height="30" as="geometry" />
        </mxCell>
        <mxCell id="IOB-C0If9d33cHpbswls-105" style="edgeStyle=none;shape=connector;rounded=0;orthogonalLoop=1;jettySize=auto;html=1;exitX=0.5;exitY=1;exitDx=0;exitDy=0;entryX=0.345;entryY=0.02;entryDx=0;entryDy=0;entryPerimeter=0;labelBackgroundColor=default;strokeColor=default;align=center;verticalAlign=middle;fontFamily=Helvetica;fontSize=11;fontColor=default;endArrow=none;endFill=0;" edge="1" parent="1" source="IOB-C0If9d33cHpbswls-104" target="IOB-C0If9d33cHpbswls-1">
          <mxGeometry relative="1" as="geometry" />
        </mxCell>
        <mxCell id="IOB-C0If9d33cHpbswls-106" value="FinalResultID" style="ellipse;whiteSpace=wrap;html=1;fontFamily=Helvetica;fontSize=11;fontColor=default;fontStyle=4" vertex="1" parent="1">
          <mxGeometry x="40" y="170" width="80" height="40" as="geometry" />
        </mxCell>
        <mxCell id="IOB-C0If9d33cHpbswls-107" style="edgeStyle=none;shape=connector;rounded=0;orthogonalLoop=1;jettySize=auto;html=1;exitX=0.5;exitY=1;exitDx=0;exitDy=0;entryX=0.664;entryY=0.02;entryDx=0;entryDy=0;entryPerimeter=0;labelBackgroundColor=default;strokeColor=default;align=center;verticalAlign=middle;fontFamily=Helvetica;fontSize=11;fontColor=default;endArrow=none;endFill=0;" edge="1" parent="1" source="IOB-C0If9d33cHpbswls-106" target="IOB-C0If9d33cHpbswls-5">
          <mxGeometry relative="1" as="geometry" />
        </mxCell>
        <mxCell id="IOB-C0If9d33cHpbswls-110" value="" style="ellipse;whiteSpace=wrap;html=1;fontFamily=Helvetica;fontSize=11;fontColor=default;" vertex="1" parent="1">
          <mxGeometry x="792.5" y="184" width="77.5" height="46" as="geometry" />
        </mxCell>
        <mxCell id="IOB-C0If9d33cHpbswls-111" value="E-mailadres" style="ellipse;whiteSpace=wrap;html=1;fontFamily=Helvetica;fontSize=11;fontColor=default;" vertex="1" parent="1">
          <mxGeometry x="796.25" y="188" width="70" height="40" as="geometry" />
        </mxCell>
        <mxCell id="IOB-C0If9d33cHpbswls-112" style="edgeStyle=none;shape=connector;rounded=0;orthogonalLoop=1;jettySize=auto;html=1;exitX=0;exitY=1;exitDx=0;exitDy=0;entryX=0.698;entryY=0.06;entryDx=0;entryDy=0;entryPerimeter=0;labelBackgroundColor=default;strokeColor=default;align=center;verticalAlign=middle;fontFamily=Helvetica;fontSize=11;fontColor=default;endArrow=none;endFill=0;" edge="1" parent="1" source="IOB-C0If9d33cHpbswls-111" target="IOB-C0If9d33cHpbswls-4">
          <mxGeometry relative="1" as="geometry" />
        </mxCell>
        <mxCell id="IOB-C0If9d33cHpbswls-113" value="&lt;b&gt;OWNS&lt;/b&gt;" style="rounded=0;whiteSpace=wrap;html=1;fontFamily=Helvetica;fontSize=11;fontColor=default;strokeColor=none;fillColor=none;" vertex="1" parent="1">
          <mxGeometry x="370" y="95" width="120" height="20" as="geometry" />
        </mxCell>
        <mxCell id="IOB-C0If9d33cHpbswls-114" value="&lt;b&gt;RECEIVES&lt;/b&gt;" style="rounded=0;whiteSpace=wrap;html=1;fontFamily=Helvetica;fontSize=11;fontColor=default;strokeColor=none;fillColor=none;" vertex="1" parent="1">
          <mxGeometry x="150" y="197" width="120" height="20" as="geometry" />
        </mxCell>
        <mxCell id="IOB-C0If9d33cHpbswls-115" value="&lt;b&gt;SUPERVISES&lt;/b&gt;" style="rounded=0;whiteSpace=wrap;html=1;fontFamily=Helvetica;fontSize=11;fontColor=default;strokeColor=none;fillColor=none;" vertex="1" parent="1">
          <mxGeometry x="461.25" y="210" width="120" height="20" as="geometry" />
        </mxCell>
        <mxCell id="IOB-C0If9d33cHpbswls-116" value="&lt;b&gt;MEASURES&lt;/b&gt;" style="rounded=0;whiteSpace=wrap;html=1;fontFamily=Helvetica;fontSize=11;fontColor=default;strokeColor=none;fillColor=none;" vertex="1" parent="1">
          <mxGeometry x="260" y="405" width="120" height="20" as="geometry" />
        </mxCell>
        <mxCell id="IOB-C0If9d33cHpbswls-117" value="1:N" style="rounded=0;whiteSpace=wrap;html=1;fontFamily=Helvetica;fontSize=11;fontColor=default;strokeColor=none;fillColor=none;" vertex="1" parent="1">
          <mxGeometry x="405" y="250" width="120" height="20" as="geometry" />
        </mxCell>
        <mxCell id="IOB-C0If9d33cHpbswls-118" value="1:N" style="rounded=0;whiteSpace=wrap;html=1;fontFamily=Helvetica;fontSize=11;fontColor=default;strokeColor=none;fillColor=none;" vertex="1" parent="1">
          <mxGeometry x="625" y="250" width="120" height="20" as="geometry" />
        </mxCell>
        <mxCell id="IOB-C0If9d33cHpbswls-119" value="1:N" style="rounded=0;whiteSpace=wrap;html=1;fontFamily=Helvetica;fontSize=11;fontColor=default;strokeColor=none;fillColor=none;" vertex="1" parent="1">
          <mxGeometry x="332.63" y="294" width="120" height="20" as="geometry" />
        </mxCell>
        <mxCell id="IOB-C0If9d33cHpbswls-120" value="0:1" style="rounded=0;whiteSpace=wrap;html=1;fontFamily=Helvetica;fontSize=11;fontColor=default;strokeColor=none;fillColor=none;" vertex="1" parent="1">
          <mxGeometry x="330" y="450" width="120" height="20" as="geometry" />
        </mxCell>
        <mxCell id="IOB-C0If9d33cHpbswls-121" value="1:N" style="rounded=0;whiteSpace=wrap;html=1;fontFamily=Helvetica;fontSize=11;fontColor=default;strokeColor=none;fillColor=none;" vertex="1" parent="1">
          <mxGeometry x="195" y="250" width="120" height="20" as="geometry" />
        </mxCell>
        <mxCell id="IOB-C0If9d33cHpbswls-122" value="0:1" style="rounded=0;whiteSpace=wrap;html=1;fontFamily=Helvetica;fontSize=11;fontColor=default;strokeColor=none;fillColor=none;" vertex="1" parent="1">
          <mxGeometry x="40" y="250" width="120" height="20" as="geometry" />
        </mxCell>
        <mxCell id="IOB-C0If9d33cHpbswls-123" value="1:N" style="rounded=0;whiteSpace=wrap;html=1;fontFamily=Helvetica;fontSize=11;fontColor=default;strokeColor=none;fillColor=none;" vertex="1" parent="1">
          <mxGeometry x="334.5" y="228" width="120" height="20" as="geometry" />
        </mxCell>
        <mxCell id="IOB-C0If9d33cHpbswls-125" value="1:N" style="rounded=0;whiteSpace=wrap;html=1;fontFamily=Helvetica;fontSize=11;fontColor=default;strokeColor=none;fillColor=none;" vertex="1" parent="1">
          <mxGeometry x="334.5" y="40" width="120" height="20" as="geometry" />
        </mxCell>
      </root>
    </mxGraphModel>
  </diagram>
</mxfile>
